<?xml version="1.0" encoding="UTF-8"?>
<svg width="150px" height="25px" viewBox="0 0 150 25" version="1.1" xmlns="http://www.w3.org/2000/svg" xmlns:xlink="http://www.w3.org/1999/xlink">
    <!-- Generator: Sketch 55.2 (78181) - https://sketchapp.com -->
    <title>Connectplus_logo_white</title>
    <desc>Created with Sketch.</desc>
    <defs>
        <polygon id="path-1" points="0.00427062995 0.00981090429 12.1552371 0.00981090429 12.1552371 6.48216994 0.00427062995 6.48216994"></polygon>
    </defs>
    <g id="Connectplus_dashboard" stroke="none" stroke-width="1" fill="none" fill-rule="evenodd">
        <g id="Connectplus_logo_white">
            <rect id="Rectangle" fill="#03A10A" x="0" y="0" width="24.3243243" height="24.3243243" rx="4"></rect>
            <g id="Group-11" transform="translate(5.675676, 8.918919)">
                <g id="Group-3" transform="translate(0.810811, 0.000000)">
                    <mask id="mask-2" fill="white">
                        <use xlink:href="#path-1"></use>
                    </mask>
                    <g id="Clip-2"></g>
                    <path d="M0.00427062995,4.30053388 C0.359227726,4.37689448 0.680276436,4.33118919 1.00061993,4.27413254 C1.83943916,4.12474343 2.57701881,3.75068197 3.2715222,3.29757201 C3.79241419,2.95774232 4.28871596,2.58321437 4.79761921,2.22631322 C5.18610318,1.95386968 5.57883003,1.68701296 5.96665502,1.41371418 C6.40568364,1.10431766 6.86283989,0.823066272 7.34116432,0.57315883 C7.68259506,0.394780452 8.0362342,0.240815254 8.41189703,0.147383191 C8.66012306,0.0856504998 8.91749383,0.0484753795 9.17319983,0.0267611996 C9.40482427,0.00707960015 9.64262229,0.000859681599 9.87259352,0.0282606442 C10.3491838,0.0850729359 10.7905131,0.242070344 11.1754825,0.529230655 C11.4917449,0.765132173 11.7415317,1.05418067 11.8978016,1.40623917 C11.9926595,1.61996001 12.0622567,1.84728693 12.1131713,2.0747027 C12.1521203,2.24876046 12.159265,2.43300333 12.1534614,2.61191485 C12.1434495,2.92096705 12.098905,3.2269204 11.9753527,3.51680193 C11.9063683,3.6786642 11.8371758,3.84044872 11.7668156,4.00175565 C11.7603068,4.01665013 11.7445029,4.02781266 11.7330228,4.04071899 C11.7196236,4.02479156 11.6984786,4.01066346 11.6939929,3.99268123 C11.5743598,3.51368086 11.2689415,3.17399556 10.8275545,2.94354757 C10.4841006,2.7642251 10.1107268,2.69625028 9.72319083,2.73908997 C9.48982068,2.76488041 9.25210359,2.79693521 9.03025974,2.86690929 C8.63996069,2.99001925 8.27933871,3.17776083 7.94312198,3.40828656 C7.16328692,3.94296631 6.49173209,4.59282562 5.81709048,5.23984154 C5.45826046,5.58396964 5.08318724,5.90954906 4.63103689,6.1394639 C4.40915836,6.25229989 4.1806207,6.35304036 3.92942349,6.39107071 C3.70035402,6.42574676 3.47000128,6.48573565 3.24115147,6.4820037 C2.71013205,6.47334024 2.22337966,6.31941947 1.77981913,6.02450648 C1.28029185,5.69237394 0.837968349,5.30317364 0.437310657,4.8683569 C0.293873446,4.71269234 0.167373086,4.54257756 0.0345951084,4.37797186 C0.0213693351,4.36156683 0.0183287946,4.33758682 0.00427062995,4.30053388" id="Fill-1" fill="#FFFFFF" mask="url(#mask-2)"></path>
                </g>
                <path d="M5.67567568,1.19352071 C5.48076249,1.32551207 5.30643905,1.44692441 5.1281761,1.56358131 C4.69976568,1.84396666 4.27879398,2.13434561 3.83738317,2.39771207 C3.40107055,2.65802808 2.94492132,2.89329337 2.44046671,3.04062945 C2.22688719,3.10301491 2.01445476,3.17807466 1.79456043,3.21107507 C1.59057478,3.24168236 1.38237153,3.25736603 1.1670424,3.22644034 C0.858242533,3.18205977 0.596774756,3.07788202 0.390969976,2.87295698 C0.242276544,2.72490193 0.154205261,2.54633203 0.0792618247,2.3590524 C0.00675161689,2.17782233 -0.00146342583,1.99540084 0.000181900075,1.80828555 C0.00239497929,1.55655601 0.0952631985,1.32866524 0.227375917,1.11165135 C0.442867263,0.757674988 0.75361371,0.486862115 1.15163195,0.293758887 C1.38080731,0.182576373 1.62146519,0.0994436928 1.88052291,0.0664432847 C2.10485499,0.0378593645 2.33145808,-0.00564817623 2.55552366,0.000606803071 C2.82086143,0.0080121234 3.08943192,0.0440013639 3.34762063,0.100101031 C3.62749983,0.160915041 3.90900119,0.236981341 4.1680705,0.346695116 C4.49216494,0.483945179 4.79797541,0.656773647 5.10415666,0.824990479 C5.27910579,0.921115851 5.43913111,1.03856362 5.60580726,1.14650052 C5.62484437,1.15882561 5.64339484,1.17176694 5.67567568,1.19352071" id="Fill-4" fill="#FFFFFF"></path>
                <path d="M5.67567568,7.19847529 C5.79477078,7.15399875 5.91636697,7.11361978 6.03251821,7.06436937 C6.58707871,6.82920662 7.06209489,6.50567757 7.50424982,6.14553892 C7.9149915,5.81096036 8.3209105,5.47195602 8.74209933,5.14664671 C9.16692611,4.81853276 9.61080428,4.50446194 10.1307444,4.28474464 C10.551658,4.10686831 10.9972115,3.99062462 11.482639,4.09137313 C11.8330193,4.16408512 12.1016535,4.4277419 12.1507778,4.7260689 C12.2090688,5.07994185 12.0360028,5.36778623 11.80309,5.63732083 C11.5398051,5.9419931 11.1691288,6.14772694 10.7965377,6.34955218 C10.3357742,6.59914594 9.84286741,6.79671448 9.32746277,6.95024408 C9.01659727,7.04283724 8.69138339,7.104629 8.36900568,7.16747499 C7.72605727,7.29278903 7.07170435,7.31502731 6.41508968,7.28587687 C6.16873802,7.27493676 5.92391812,7.24031626 5.67840414,7.2164867 C5.67749465,7.21047958 5.67658516,7.20448241 5.67567568,7.19847529" id="Fill-6" fill="#FFFFFF"></path>
            </g>
            <path d="M37.8227027,19.7513514 C33.9697297,19.7513514 30.7589189,16.9686486 30.7589189,12.5708108 C30.7589189,8.17297297 34.0864865,5.37081081 37.7837838,5.37081081 C41.5978378,5.37081081 43.5632432,7.70594595 44.1081081,9.94378378 L41.5783784,10.7416216 C41.2475676,9.41837838 40.1772973,7.95891892 37.7837838,7.95891892 C35.7210811,7.95891892 33.5416216,9.43783784 33.5416216,12.5708108 C33.5416216,15.5091892 35.6043243,17.1243243 37.8227027,17.1243243 C40.1772973,17.1243243 41.3254054,15.587027 41.6951351,14.3027027 L44.2054054,15.0616216 C43.68,17.1827027 41.6951351,19.7513514 37.8227027,19.7513514 Z M50.5491892,17.3967568 C51.8140541,17.3967568 52.9816216,16.4821622 52.9816216,14.6724324 C52.9816216,12.8627027 51.8140541,11.9481081 50.5491892,11.9481081 C49.2843243,11.9481081 48.1167568,12.8627027 48.1167568,14.6724324 C48.1167568,16.4627027 49.2843243,17.3967568 50.5491892,17.3967568 Z M50.5491892,9.59351351 C53.4097297,9.59351351 55.5697297,11.7145946 55.5697297,14.6724324 C55.5697297,17.6108108 53.4097297,19.7513514 50.5491892,19.7513514 C47.6886486,19.7513514 45.5286486,17.6108108 45.5286486,14.6724324 C45.5286486,11.7145946 47.6886486,9.59351351 50.5491892,9.59351351 Z M60.2010811,13.9524324 L60.2010811,19.4594595 L57.612973,19.4594595 L57.612973,9.88540541 L60.1232432,9.88540541 L60.1232432,11.0724324 C60.707027,10.08 61.8551351,9.63243243 62.8864865,9.63243243 C65.2605405,9.63243243 66.3502703,11.3254054 66.3502703,13.427027 L66.3502703,19.4594595 L63.7621622,19.4594595 L63.7621622,13.8745946 C63.7621622,12.8043243 63.2367568,11.9675676 61.9913514,11.9675676 C60.8627027,11.9675676 60.2010811,12.8432432 60.2010811,13.9524324 Z M71.5654054,13.9524324 L71.5654054,19.4594595 L68.9772973,19.4594595 L68.9772973,9.88540541 L71.4875676,9.88540541 L71.4875676,11.0724324 C72.0713514,10.08 73.2194595,9.63243243 74.2508108,9.63243243 C76.6248649,9.63243243 77.7145946,11.3254054 77.7145946,13.427027 L77.7145946,19.4594595 L75.1264865,19.4594595 L75.1264865,13.8745946 C75.1264865,12.8043243 74.6010811,11.9675676 73.3556757,11.9675676 C72.227027,11.9675676 71.5654054,12.8432432 71.5654054,13.9524324 Z M82.2291892,13.5827027 L86.5102703,13.5827027 C86.4713514,12.6291892 85.8486486,11.6951351 84.3697297,11.6951351 C83.027027,11.6951351 82.2875676,12.707027 82.2291892,13.5827027 Z M86.7632432,16.0735135 L88.9232432,16.7156757 C88.4367568,18.3697297 86.9189189,19.7513514 84.5643243,19.7513514 C81.9372973,19.7513514 79.6216216,17.8637838 79.6216216,14.6335135 C79.6216216,11.5783784 81.8789189,9.59351351 84.3308108,9.59351351 C87.2886486,9.59351351 89.0594595,11.4810811 89.0594595,14.5556757 C89.0594595,14.9254054 89.0205405,15.3145946 89.0205405,15.3535135 L82.1708108,15.3535135 C82.2291892,16.6183784 83.2994595,17.532973 84.5837838,17.532973 C85.7902703,17.532973 86.4518919,16.9297297 86.7632432,16.0735135 Z M95.4032432,11.987027 C94.08,11.987027 92.9708108,12.9405405 92.9708108,14.6724324 C92.9708108,16.4043243 94.0994595,17.3772973 95.4227027,17.3772973 C96.7459459,17.3772973 97.4075676,16.5016216 97.6216216,15.7621622 L99.8983784,16.5210811 C99.4702703,18.1167568 97.9718919,19.7513514 95.4227027,19.7513514 C92.6010811,19.7513514 90.3827027,17.6108108 90.3827027,14.6724324 C90.3827027,11.7145946 92.5621622,9.59351351 95.3448649,9.59351351 C97.9524324,9.59351351 99.4313514,11.2086486 99.84,12.8237838 L97.5243243,13.6021622 C97.2908108,12.8043243 96.6875676,11.987027 95.4032432,11.987027 Z M104.996757,7.02486486 L104.996757,9.88540541 L106.923243,9.88540541 L106.923243,12.1816216 L104.996757,12.1816216 L104.996757,16.1902703 C104.996757,17.027027 105.385946,17.2994595 106.125405,17.2994595 C106.436757,17.2994595 106.787027,17.2605405 106.923243,17.2216216 L106.923243,19.3621622 C106.68973,19.4594595 106.222703,19.5956757 105.463784,19.5956757 C103.595676,19.5956757 102.428108,18.4864865 102.428108,16.6378378 L102.428108,12.1816216 L100.696216,12.1816216 L100.696216,9.88540541 L101.182703,9.88540541 C102.194595,9.88540541 102.661622,9.22378378 102.661622,8.36756757 L102.661622,7.02486486 L104.996757,7.02486486 Z M116.76973,11.9481081 L118.890811,11.9481081 C120.233514,11.9481081 121.050811,11.1697297 121.050811,9.9827027 C121.050811,8.75675676 120.233514,7.99783784 118.890811,7.99783784 L116.76973,7.99783784 L116.76973,11.9481081 Z M119.221622,14.2637838 L116.75027,14.2637838 L116.75027,19.4594595 L114.064865,19.4594595 L114.064865,5.6627027 L119.221622,5.6627027 C121.945946,5.6627027 123.755676,7.47243243 123.755676,9.96324324 C123.755676,12.4735135 121.945946,14.2637838 119.221622,14.2637838 Z M128.250811,19.4594595 L125.662703,19.4594595 L125.662703,5.37081081 L128.250811,5.37081081 L128.250811,19.4594595 Z M137.28,19.4594595 C137.241081,19.2648649 137.202162,18.8172973 137.202162,18.4281081 C136.676757,19.3232432 135.567568,19.7124324 134.555676,19.7124324 C132.24,19.7124324 130.916757,18.0194595 130.916757,15.9372973 L130.916757,9.88540541 L133.504865,9.88540541 L133.504865,15.4118919 C133.504865,16.4821622 134.04973,17.3383784 135.256216,17.3383784 C136.404324,17.3383784 137.065946,16.56 137.065946,15.4508108 L137.065946,9.88540541 L139.654054,9.88540541 L139.654054,17.7275676 C139.654054,18.467027 139.712432,19.1286486 139.751351,19.4594595 L137.28,19.4594595 Z M141.6,16.7935135 L143.818378,16.307027 C143.876757,17.0659459 144.441081,17.7664865 145.56973,17.7664865 C146.425946,17.7664865 146.834595,17.3189189 146.834595,16.812973 C146.834595,16.3848649 146.542703,16.0345946 145.803243,15.8789189 L144.538378,15.587027 C142.68973,15.1783784 141.852973,14.0691892 141.852973,12.7264865 C141.852973,11.0140541 143.370811,9.59351351 145.433514,9.59351351 C148.157838,9.59351351 149.072432,11.3254054 149.189189,12.3567568 L147.029189,12.8432432 C146.951351,12.2789189 146.542703,11.5589189 145.452973,11.5589189 C144.771892,11.5589189 144.227027,11.9675676 144.227027,12.5124324 C144.227027,12.9794595 144.577297,13.2713514 145.102703,13.3686486 L146.464865,13.6605405 C148.352432,14.0497297 149.305946,15.1978378 149.305946,16.5989189 C149.305946,18.1556757 148.099459,19.7513514 145.589189,19.7513514 C142.709189,19.7513514 141.716757,17.8832432 141.6,16.7935135 Z" id="ConnectPlus" fill="#FFFDFD" fill-rule="nonzero"></path>
        </g>
    </g>
</svg>