<?xml version="1.0" encoding="utf-8"?>
<!-- Generator: Adobe Illustrator 21.1.0, SVG Export Plug-In . SVG Version: 6.00 Build 0)  -->
<svg version="1.1" id="Layer_1" xmlns="http://www.w3.org/2000/svg" xmlns:xlink="http://www.w3.org/1999/xlink" x="0px" y="0px"
	 viewBox="0 0 82.1 82.1" style="enable-background:new 0 0 82.1 82.1;" xml:space="preserve">
<style type="text/css">
	.st0{fill:#FFFFFF;}
	.st1{fill:#9CBE3B;}
	.st2{fill:url(#SVGID_1_);}
</style>
<circle class="st0" cx="41.1" cy="41.1" r="41.1"/>
<g>
	<path class="st1" d="M42.2,60.1c-1.3,0-2.5-0.2-3.7-0.4c-1.4-0.3-2.7-0.7-4-1.2c-1.3-0.5-2.5-1.2-3.6-2.1c-1.4-1-2.6-2.2-3.7-3.6
		c-0.9-1.2-1.7-2.4-2.3-3.8c-0.6-1.3-1-2.6-1.3-3.9c-0.2-0.9-0.3-1.8-0.3-2.7c-0.1-0.6-0.1-1.3-0.1-1.9c0.1-1,0.2-2.1,0.4-3.1
		c0.1-0.7,0.3-1.5,0.5-2.2c0.1-0.5,0.3-1,0.6-1.4c0.4-0.9,0.8-1.7,1.3-2.5c0.6-0.9,1.2-1.8,1.9-2.7c0.6-0.7,1.2-1.4,1.9-2
		c0.8-0.6,1.6-1.2,2.4-1.7c0.5-0.3,1.1-0.7,1.7-0.9c0.5-0.3,1.1-0.5,1.6-0.7c0.6-0.2,1.2-0.5,1.8-0.6c1-0.2,2-0.4,3-0.5
		c0.4-0.1,0.9-0.1,1.3-0.2c0.5,0,1,0,1.5,0c0.9,0,1.9,0.2,2.8,0.4c0.7,0.2,1.5,0.3,2.2,0.5c0.5,0.1,1,0.3,1.5,0.5
		c0.9,0.4,1.7,0.8,2.5,1.3c1.6,0.9,3,2.1,4.2,3.4c0.8,0.9,1.6,1.9,2.2,2.9c0.5,1,0.7,2.1,0.4,3.3c-0.2,0.7-0.4,1.3-0.8,1.9
		c-0.5,0.7-1.1,1.1-1.8,1.5c-0.9,0.5-1.9,0.6-2.9,0.5c-1.1-0.1-2.1-0.6-2.9-1.5c-0.6-0.7-1.2-1.5-1.9-2.2c-0.7-0.8-1.6-1.3-2.5-1.7
		c-1.5-0.7-3.2-1-4.8-0.8c-1.5,0.2-2.9,0.6-4.1,1.5c-0.7,0.5-1.4,1.1-1.9,1.7c-0.8,0.9-1.3,1.9-1.7,3c-0.5,1.3-0.5,2.7-0.4,4.1
		c0,0.6,0.2,1.1,0.4,1.6c0.2,0.7,0.5,1.3,0.9,2c0.6,1.1,1.5,1.9,2.5,2.7c0.9,0.6,1.8,1.1,2.9,1.4c1.4,0.4,2.9,0.4,4.4,0.1
		c1.2-0.3,2.3-0.7,3.3-1.5c0.7-0.5,1.2-1.1,1.8-1.7c0.3-0.3,0.4-0.6,0.7-0.9c1.1-1.6,2.7-2.3,4.6-2.1c1.7,0.2,3,1.1,3.8,2.6
		c0.5,0.9,0.7,1.9,0.6,2.9c-0.1,0.9-0.4,1.7-1,2.5c-0.7,0.9-1.4,1.8-2.2,2.7c-0.5,0.5-1,1-1.6,1.5c-1,0.7-2,1.5-3.1,2
		c-1,0.5-2.1,0.9-3.2,1.3c-0.9,0.3-1.9,0.5-2.8,0.7C44.1,60.1,43.1,60.1,42.2,60.1z"/>
	<linearGradient id="SVGID_1_" gradientUnits="userSpaceOnUse" x1="23.2232" y1="43.6272" x2="58.8876" y2="43.6272">
		<stop  offset="0" style="stop-color:#6EA21F"/>
		<stop  offset="1" style="stop-color:#9CBE3B"/>
	</linearGradient>
	<path class="st2" d="M42.2,60.1c-1.8,0-3.6-0.3-5.4-0.8c-2.4-0.7-4.5-1.8-6.4-3.3c-2.2-1.7-3.9-3.8-5.2-6.3
		c-0.7-1.4-1.2-2.8-1.5-4.3c-0.4-2-0.6-4-0.4-6c0.2-2.6,1-5.1,2.2-7.4c0.7-1.2,1.4-2.3,2.3-3.3c0.1-0.2,0.3-0.3,0.5-0.4
		c1.3-0.7,2.6-1.3,4.2-1.1c1,0.1,1.8,0.4,2.5,1c0.3,0.2,0.5,0.6,0.6,0.9c1.3,2.4,0.9,4.3-0.5,6.1c-0.9,1.1-1.6,2.3-1.9,3.7
		c-0.1,0.7-0.3,1.5-0.3,2.2c0,1.2,0.2,2.4,0.7,3.5c0.7,1.7,1.8,3,3.3,4.1c0.9,0.6,1.8,1.1,2.9,1.3c0.7,0.1,1.4,0.3,2,0.3
		c0.7,0,1.5-0.1,2.2-0.2c1-0.2,2-0.6,2.9-1.2c1.2-0.8,2.1-1.8,3-3c0.8-1.1,1.8-1.7,3.1-1.9c2-0.3,3.5,0.4,4.7,1.9
		c0.8,1.1,1.1,2.3,0.9,3.7c-0.1,1.1-0.7,1.9-1.3,2.8c-1.8,2.4-4,4.3-6.7,5.7c-1.4,0.7-2.8,1.2-4.3,1.6C45.1,60,43.7,60.1,42.2,60.1z
		"/>
</g>
</svg>
